<?xml version="1.0" encoding="UTF-8"?>
<svg version="1.1" xmlns="http://www.w3.org/2000/svg" width="1024" height="1024">
<path d="M0 0 C337.92 0 675.84 0 1024 0 C1024 337.92 1024 675.84 1024 1024 C686.08 1024 348.16 1024 0 1024 C0 686.08 0 348.16 0 0 Z " fill="#EFEEE6" transform="translate(0,0)"/>
<path d="M0 0 C4.80050635 2.40025318 7.52716549 5.24454901 10 10 C10.25 13.375 10.25 13.375 10 16 C11.65 16.33 13.3 16.66 15 17 C14.5439917 28.81283247 13.27900893 40.3626245 11.47094727 52.04272461 C11.05721407 54.72172743 10.65775484 57.40260191 10.25976562 60.08398438 C9.99822306 61.81002138 9.73588323 63.53593782 9.47265625 65.26171875 C9.3548732 66.05237228 9.23709015 66.84302582 9.11573792 67.65763855 C7.40257468 78.59742532 7.40257468 78.59742532 5 81 C-0.70891512 81.71361439 -5.12324237 79.75393372 -10 77 C-12.0625 75.25 -12.0625 75.25 -13 73 C-13.17690348 70.30892285 -13.08719399 67.70301376 -13 65 C-13.33 64.34 -13.66 63.68 -14 63 C-14.5 60.25 -14.5 60.25 -14 57 C-12.4375 55.51953125 -12.4375 55.51953125 -10.5 54.0625 C-8.54726943 52.65560039 -8.54726943 52.65560039 -7 51 C-6.41338532 47.24606681 -6.41338532 47.24606681 -7 44 C-7.66 44.4125 -8.32 44.825 -9 45.25 C-15.35722069 48.95837873 -21.77793714 51.78446735 -28.75 54.125 C-31.50867433 55.06055043 -34.25886103 56.01425362 -37 57 C-37.78761719 57.28101563 -38.57523437 57.56203125 -39.38671875 57.8515625 C-41.79025505 59.56255444 -42.18651036 61.47413673 -43.0625 64.25 C-44.12937265 67.50565502 -45.11103397 70.19526664 -46.8125 73.1875 C-48.15769213 76.37348135 -47.99726226 78.49040384 -47.3671875 81.859375 C-47 84 -47 84 -46.9453125 86.265625 C-46.81021502 90.67880938 -46.19223308 93.36058765 -43.125 96.625 C-38.50949572 100.70976868 -33.30623378 103.89765782 -28 107 C-27.28457031 107.43828125 -26.56914062 107.8765625 -25.83203125 108.328125 C-20.92716362 111.108529 -16.58229539 112.16368091 -11 111 C-6.52865804 109.25385517 -2.25829539 107.2114177 2 105 C1.84144531 104.2678125 1.68289063 103.535625 1.51953125 102.78125 C0.52793432 97.47285139 -0.08096862 92.81448304 2.75 88.0625 C6.74431514 84.40104446 9.42492612 83.58489557 14.9765625 83.75 C19.30829723 84.28519502 22.14885985 86.26085197 25.375 89.0625 C27.74911832 93.35417542 27.66624255 97.19845885 27 102 C25.5 105.625 25.5 105.625 24 108 C25.0828125 108.37125 25.0828125 108.37125 26.1875 108.75 C32.81837996 111.69705776 36.48816856 116.95614035 40.6875 122.625 C41.836024 124.15976459 42.98571102 125.69365972 44.13671875 127.2265625 C44.63905029 127.90283691 45.14138184 128.57911133 45.65893555 129.27587891 C47.03200631 131.11467668 47.03200631 131.11467668 49 133 C53.0053658 132.88873984 55.61695129 131.23325092 58.5703125 128.5859375 C61.97243366 124.81199982 64.03778374 120.92697071 63.9375 115.8125 C63.12173522 112.96328391 63.12173522 112.96328391 61.4375 110.625 C59.91058452 107.83671957 59.89357737 106.98373818 60.0625 103.9375 C60.0315625 101.9884375 60.0315625 101.9884375 60 100 C59.3503125 99.44828125 58.700625 98.8965625 58.03125 98.328125 C54.93031753 94.77397932 55.35939343 91.38497058 55.4375 86.8125 C55.44628174 85.92916992 55.45506348 85.04583984 55.46411133 84.13574219 C55.76851544 74.11105918 57.6837238 63.11664639 63.75 54.875 C67.60454447 49.63088621 66.91022357 42.26802728 67 36 C66.3709375 36.05800781 65.741875 36.11601562 65.09375 36.17578125 C58.29138554 36.53433962 54.32047241 35.23692972 49 31 C48 30 48 30 47.90234375 27.27734375 C47.91974609 25.62412109 47.91974609 25.62412109 47.9375 23.9375 C47.94652344 22.83277344 47.95554687 21.72804688 47.96484375 20.58984375 C47.98224609 19.30787109 47.98224609 19.30787109 48 18 C50.26688068 19.07255305 51.93095222 19.93341822 53.75 21.6875 C57.27003384 23.74085307 60.24213837 22.98031173 64 22 C71.4703701 19.96385099 71.4703701 19.96385099 77.2578125 15.25390625 C77.90443998 13.52585004 78.45513749 11.76279046 79 10 C81.97534066 6.68462041 83.4821072 6.06576416 87.9375 5.5 C92.21149952 5.7414689 94.73726673 7.1821849 98 10 C100.92120801 13.37062463 102 15.00825875 102 19.5 C100.91891173 23.28380895 99.16621242 25.75068137 97 29 C97.25419825 32.93597285 99.57562559 35.03437563 102.1875 37.8125 C104.94173934 40.76688944 107.60814033 43.71698909 110.125 46.875 C112.97390824 50.26007917 116.06049893 52.03024947 120 54 C120.061875 53.2575 120.12375 52.515 120.1875 51.75 C121.30723538 47.9601264 122.56196792 46.93389305 126 45 C130.72278092 44.13894049 134.05551654 44.5010276 138.3125 46.75 C139.199375 47.4925 140.08625 48.235 141 49 C141.78375 49.598125 142.5675 50.19625 143.375 50.8125 C145.80291124 54.08084206 145.51843906 55.98209729 145 60 C144.05915283 62.48594533 143.02676635 64.8818297 141.875 67.27734375 C139.8383122 73.61471604 141.11265897 79.64020955 142.8125 85.875 C142.99409668 86.56899902 143.17569336 87.26299805 143.36279297 87.97802734 C145.88006178 97.58592456 145.88006178 97.58592456 149.1875 106.9375 C150.82079877 113.09377998 151.24328995 119.52899414 148 125.1875 C147.34 126.115625 146.68 127.04375 146 128 C146.886875 128.04125 147.77375 128.0825 148.6875 128.125 C153.19164237 129.31477346 154.5427637 131.09733059 157 135 C157.4375 138.75 157.4375 138.75 157 142 C156.34 142.66 155.68 143.32 155 144 C152.5 143.8125 152.5 143.8125 150 143 C149.34 142.01 148.68 141.02 148 140 C145.41123324 139.59487026 145.41123324 139.59487026 142.4375 139.75 C140.82681641 139.77900391 140.82681641 139.77900391 139.18359375 139.80859375 C136.3913227 139.97647262 133.75234178 140.34080083 131 140.8125 C128.84765625 141.109375 128.84765625 141.109375 127 141 C124.4375 138.5625 124.4375 138.5625 123 136 C122.87978025 142.13120747 123.36701113 148.05111614 124.07421875 154.14453125 C124 157 124 157 122.859375 158.859375 C119.00803856 161.22195954 114.33347582 160.58385153 110 160 C107.3125 158.3125 107.3125 158.3125 106 156 C105.5625 153.375 105.5625 153.375 106 151 C109 149 109 149 112 149 C111.7834375 148.37996094 111.566875 147.75992188 111.34375 147.12109375 C108.67155903 138.62204192 106.51500113 128.45259171 110.34765625 120.04296875 C111.78640306 117.88314788 113.25430048 115.91715215 115 114 C113.82244141 114.52400391 113.82244141 114.52400391 112.62109375 115.05859375 C107.04966092 117.47174196 102.08272909 119.58526847 96 120 C93.31460775 131.26905678 93.18116287 138.99894381 97.6953125 149.8125 C99.18835023 153.46016104 100.30003482 157.13506583 101.375 160.921875 C102.00040258 163.14604189 102.00040258 163.14604189 103.1875 165.75 C104.82053235 170.27224344 103.91667557 174.41662213 103 179 C103.33 179.33 103.66 179.66 104 180 C104.2982732 182.83359542 104.35602594 184.43785378 102.8125 186.875 C101 188 101 188 98.625 188.125 C94.75747006 186.46748717 93.15237444 183.50791239 91 180 C90.01 180.66 89.02 181.32 88 182 C84.8125 182.125 84.8125 182.125 82 182 C81.67 180.68 81.34 179.36 81 178 C80.01 178.33 79.02 178.66 78 179 C76.33732126 179.14220279 74.6684827 179.22020567 73 179.25 C71.700625 179.28867187 71.700625 179.28867187 70.375 179.328125 C67.46514325 178.92610532 66.79441426 178.27678026 65 176 C64.59594727 173.98217773 64.59594727 173.98217773 64.56640625 171.68359375 C64.55544922 170.84135254 64.54449219 169.99911133 64.53320312 169.13134766 C64.54287109 168.24237793 64.55253906 167.3534082 64.5625 166.4375 C64.56572266 165.53306152 64.56894531 164.62862305 64.57226562 163.69677734 C64.69468412 157.84285166 65.46061518 153.20376963 68.10546875 147.9140625 C69.36665816 145.21544762 69.36507632 142.92061057 69 140 C68.67 139.34 68.34 138.68 68 138 C64.75615092 139.08128303 62.17775115 140.49796306 59.4375 142.5 C54.84847582 145.85275689 51.8970453 147.68570294 46 147 C43.4375 144.734375 43.4375 144.734375 41 141.75 C37.57768593 137.60373488 34.540187 134.77162578 30 132 C28.31818197 142.06032965 29.2183636 147.66989606 33.609375 156.8828125 C35.54360925 161.21853983 35.85748921 163.32278613 35 168 C33.3401197 172.18113788 31.64547273 176.44336734 28.3359375 179.57421875 C26.10412208 181.95612702 26.94414179 184.87194043 27 188 C26.34 188.99 25.68 189.98 25 191 C17.92747541 191.67357377 17.92747541 191.67357377 15.2734375 189.74609375 C12.72291688 186.24890751 13.4991152 182.11780033 14 178 C15.13447922 173.26072534 16.50274628 168.63881286 18 164 C16.68 164 15.36 164 14 164 C13.814375 165.3303125 13.814375 165.3303125 13.625 166.6875 C12.22653454 174.09936691 12.22653454 174.09936691 8.82421875 176.59765625 C5.60558447 178.19584395 3.13056129 178.46421888 -0.4375 178.75 C-5.11124053 179.28950942 -5.11124053 179.28950942 -9.00390625 181.6796875 C-9.96604883 182.93072406 -10.90117294 184.2032673 -11.80078125 185.5 C-13 187 -13 187 -15.6875 187.625 C-18.44984764 186.87841956 -19.46233833 186.42788686 -21 184 C-21.61338978 179.29734499 -20.73359064 176.79893004 -18 173 C-15.37109375 171.05078125 -15.37109375 171.05078125 -12.4375 169.3125 C-8.4749853 166.96884559 -8.4749853 166.96884559 -5 164 C-4.33159146 161.62985808 -4.33159146 161.62985808 -5 159 C-5.969375 158.195625 -6.93875 157.39125 -7.9375 156.5625 C-11 154 -11 154 -12.25 151.1875 C-11.8169253 145.66579761 -8.00973813 142.10653744 -4.296875 138.21484375 C-0.19183282 133.84078182 0.78849954 131.0277631 1 125 C0.14341797 125.10828125 0.14341797 125.10828125 -0.73046875 125.21875 C-5.75438619 125.79382481 -10.75639329 126.13482673 -15.8125 126.25 C-16.87082031 126.27578125 -17.92914063 126.3015625 -19.01953125 126.328125 C-22.41972263 125.953792 -24.12543448 124.77927287 -27 123 C-29.56251643 122.69597263 -32.01936716 122.68730062 -34.59765625 122.69921875 C-38.18782386 121.65427566 -38.9898568 119.07280671 -41 116 C-43.25550812 114.37102191 -45.35084966 112.98012448 -47.75 111.625 C-48.35199219 111.27050781 -48.95398438 110.91601562 -49.57421875 110.55078125 C-51.04247056 109.68847463 -52.52029038 108.84249363 -54 108 C-55.4387401 110.2850578 -56.00288156 111.70175858 -55.9765625 114.42578125 C-54.63302322 117.9673508 -52.21356789 119.83723743 -49.375 122.1875 C-39.99839777 130.38508338 -34.07442843 139.45445632 -31.1171875 151.63671875 C-29.87310225 158.22851104 -29.87310225 158.22851104 -26.2265625 163.5234375 C-24.12906421 164.45727853 -24.12906421 164.45727853 -21 165 C-20 166 -20 166 -19.6875 168.375 C-20 171 -20 171 -21.5 172.8125 C-24.93310569 174.4432252 -28.27813627 174.92319667 -32 174 C-34.92234636 171.48306586 -37.22380184 168.55548037 -39.5625 165.5 C-40.43068359 164.37078125 -40.43068359 164.37078125 -41.31640625 163.21875 C-41.87199219 162.4865625 -42.42757812 161.754375 -43 161 C-43.54140625 160.35933594 -44.0828125 159.71867188 -44.640625 159.05859375 C-46.28267754 156.57192224 -46.64891343 154.48220615 -47.1875 151.5625 C-48.25309501 147.33958644 -49.17003319 145.24534462 -52.875 142.875 C-55.84228343 141.35851013 -58.65276348 140.31380342 -62 140 C-61.95359375 140.64066406 -61.9071875 141.28132812 -61.859375 141.94140625 C-61.80523437 143.23884766 -61.80523437 143.23884766 -61.75 144.5625 C-61.70359375 145.40941406 -61.6571875 146.25632812 -61.609375 147.12890625 C-62.48966561 153.5990422 -66.29589584 157.54210451 -70.9753418 161.68017578 C-76.69384222 166.56613456 -76.69384222 166.56613456 -79.77734375 173.1796875 C-79.75235196 176.08448172 -79.75235196 176.08448172 -79.26171875 178.7578125 C-79 181 -79 181 -81 184 C-85.46929132 183.82473367 -87.51906146 183.41954213 -90.9375 180.4375 C-93.34417125 177.70581206 -93.43403156 174.76550675 -93.33618164 171.20483398 C-92.71744694 167.14688692 -90.76161926 163.84071622 -88.75 160.3125 C-88.35425781 159.57966797 -87.95851563 158.84683594 -87.55078125 158.09179688 C-85.78119908 154.87463846 -84.03200784 152.03912674 -81.69921875 149.1875 C-79.65255399 147.02549716 -79.65255399 147.02549716 -80.0625 143.6875 C-80.88631718 139.97470999 -80.88631718 139.97470999 -82.5625 136.625 C-88.94006604 120.30221958 -80.85864757 101.3661707 -74.64257812 86.31933594 C-72.62315574 81.29750202 -71.45176257 77.42466505 -72 72 C-72.495 71.505 -72.495 71.505 -73 71 C-73.75073763 66.03942985 -73.78820471 61.22187549 -71.0625 56.875 C-68.39530727 54.09239989 -66.98578054 53.9993511 -63.0625 53.8203125 C-60.79239251 53.88770671 -58.52856367 54.00188275 -56.26098633 54.12768555 C-51.68117377 54.30752543 -51.68117377 54.30752543 -47.51171875 52.57421875 C-45.85018641 50.79479498 -44.41938588 48.97479775 -43 47 C-39.90627685 44.63900075 -37.31411507 43.80154938 -33.5625 43.0625 C-29.22050627 42.14801707 -26.35864885 41.05331714 -23 38 C-21.53012147 35.52507632 -20.29543616 33.02477119 -19.109375 30.40234375 C-18 28 -18 28 -16.0625 25.125 C-15.711875 24.42375 -15.36125 23.7225 -15 23 C-15.63705784 21.65226875 -16.30838926 20.32056685 -17 19 C-18.19531356 14.37026438 -18.50459043 11.06973171 -16.4375 6.6875 C-11.58298721 1.33508846 -7.23301823 -1.41767157 0 0 Z " fill="#D78038" transform="translate(472,475)"/>
<path d="M0 0 C0.66 0 1.32 0 2 0 C3.05750593 13.01109969 3.10264806 25.9522906 3 39 C5.97 39 8.94 39 12 39 C12.33 39.99 12.66 40.98 13 42 C6.73 42 0.46 42 -6 42 C-0.01779961 42.209285 -0.01779961 42.209285 5.96533203 42.38793945 C11.00932521 42.60871487 14.58743801 43.30182685 19 46 C19 47.32 19 48.64 19 50 C18.01 50.99 18.01 50.99 17 52 C17 53.32 17 54.64 17 56 C17.7113208 56.2266333 18.4226416 56.4532666 19.15551758 56.68676758 C22.37763102 57.71922294 25.59502765 58.76567566 28.8125 59.8125 C29.93205078 60.16892578 31.05160156 60.52535156 32.20507812 60.89257812 C33.27822266 61.24384766 34.35136719 61.59511719 35.45703125 61.95703125 C36.44678955 62.27647705 37.43654785 62.59592285 38.45629883 62.92504883 C40.98992019 63.99574034 42.3387076 64.83020526 44 67 C44.09152344 67.82886719 44.18304687 68.65773438 44.27734375 69.51171875 C44.63505859 70.74341797 44.63505859 70.74341797 45 72 C47.97572198 73.70486569 47.97572198 73.70486569 51.5625 74.8125 C53.35880859 75.44091797 53.35880859 75.44091797 55.19140625 76.08203125 C56.11824219 76.38496094 57.04507813 76.68789063 58 77 C57.505 78.485 57.505 78.485 57 80 C54.28681956 80.88082622 51.71116483 81.57876229 48.9375 82.1875 C48.17888672 82.36474609 47.42027344 82.54199219 46.63867188 82.72460938 C44.76178303 83.16136967 42.8811984 83.58219156 41 84 C41.66 85.98 42.32 87.96 43 90 C36.62273693 93.59743045 30.29363487 95.16663841 23 95 C22.95101562 95.57105469 22.90203125 96.14210938 22.8515625 96.73046875 C21.42896246 112.15832085 18.46877437 127.45893029 15.95629883 142.73901367 C15.48906259 145.58230257 15.02370446 148.42589399 14.55859375 151.26953125 C14.41691269 152.12803177 14.27523163 152.98653229 14.1292572 153.87104797 C12.39115202 164.51616436 11.76062707 174.90406401 11.75 185.6875 C11.74866058 186.48991119 11.74732117 187.29232239 11.74594116 188.11904907 C11.75043371 200.68750187 12.28980307 213.16174393 13.3125 225.6875 C13.37135376 226.43075531 13.43020752 227.17401062 13.49084473 227.93978882 C14.22646185 237.01689577 15.36903267 245.95486376 16.97492981 254.92082214 C17.7156861 259.07604805 18.24502607 263.15424517 18.5 267.375 C18.89595771 273.78305033 19.85525126 280.05402572 20.8371582 286.39233398 C21.68885464 291.89983132 22.48770555 297.40854017 23.1875 302.9375 C23.34605469 304.18402344 23.50460937 305.43054688 23.66796875 306.71484375 C23.95055899 309.5108248 24.06921902 312.19396731 24 315 C22.35 315.33 20.7 315.66 19 316 C16.94277412 310.83184719 16.58486681 306.1077704 16.375 300.625 C16.33632813 299.79355469 16.29765625 298.96210937 16.2578125 298.10546875 C16.16425754 296.07064844 16.08107287 294.03535584 16 292 C13.36 292.33 10.72 292.66 8 293 C7.67 295.31 7.34 297.62 7 300 C4.69 298.35 2.38 296.7 0 295 C0.2475 293.7934375 0.2475 293.7934375 0.5 292.5625 C1.84751315 283.87407712 1.84751315 283.87407712 -1.375 276 C-3.65116696 273.01665283 -3.65116696 273.01665283 -6 272 C-6.33 261.11 -6.66 250.22 -7 239 C-8.65 248.57 -10.3 258.14 -12 268 C-13.98 268 -15.96 268 -18 268 C-18.09770313 263.29272303 -17.78922966 258.94332573 -16.9765625 254.30859375 C-16.6530481 252.41488037 -16.6530481 252.41488037 -16.32299805 250.48291016 C-16.20870453 249.82349426 -16.09441101 249.16407837 -15.97665405 248.48468018 C-12.67697375 229.27534634 -10.83782323 210.49997648 -10.8125 191 C-10.81132172 190.30666565 -10.81014343 189.6133313 -10.80892944 188.89898682 C-10.32939847 173.2316116 -10.32939847 173.2316116 -13 158 C-13.29781353 155.41698361 -13.56375553 152.8377268 -13.8125 150.25 C-14.56813067 142.89469104 -15.68826888 135.65067907 -17 128.375 C-21.18439398 105.09557067 -21.18439398 105.09557067 -21 95 C-21.71285156 94.96261719 -22.42570312 94.92523438 -23.16015625 94.88671875 C-29.0993423 94.47904918 -33.69121747 93.71337774 -39 91 C-39 89.02 -39 87.04 -39 85 C-44.28 83.35 -49.56 81.7 -55 80 C-55 79.01 -55 78.02 -55 77 C-54.08476562 76.70867187 -53.16953125 76.41734375 -52.2265625 76.1171875 C-51.03804688 75.70726562 -49.84953125 75.29734375 -48.625 74.875 C-46.84996094 74.28332031 -46.84996094 74.28332031 -45.0390625 73.6796875 C-41.7414904 72.28050062 -41.7414904 72.28050062 -40.8359375 69.0078125 C-40.56007813 68.01523437 -40.28421875 67.02265625 -40 66 C-37.23929152 63.50374649 -34.53145497 62.31199459 -31.015625 61.17578125 C-30.08105469 60.86962891 -29.14648438 60.56347656 -28.18359375 60.24804688 C-26.73146484 59.78495117 -26.73146484 59.78495117 -25.25 59.3125 C-24.26644531 58.99216797 -23.28289062 58.67183594 -22.26953125 58.34179688 C-19.84847494 57.55436594 -17.42536241 56.77404508 -15 56 C-15 54.68 -15 53.36 -15 52 C-15.66 51.34 -16.32 50.68 -17 50 C-16.875 47.5 -16.875 47.5 -16 45 C-14.0625 43.9375 -14.0625 43.9375 -12 43 C-10.73195434 40.9664052 -10.73195434 40.9664052 -10 39 C-7.36 39 -4.72 39 -2 39 C-2.01160156 38.11957031 -2.02320313 37.23914063 -2.03515625 36.33203125 C-2.04417969 35.17058594 -2.05320312 34.00914062 -2.0625 32.8125 C-2.07410156 31.66394531 -2.08570313 30.51539063 -2.09765625 29.33203125 C-2 26 -2 26 -1.51367188 23.609375 C-1.00207487 21.01054002 -0.7971433 18.56205112 -0.68359375 15.91796875 C-0.62075195 14.52094727 -0.62075195 14.52094727 -0.55664062 13.09570312 C-0.51732422 12.13599609 -0.47800781 11.17628906 -0.4375 10.1875 C-0.37272461 8.71893555 -0.37272461 8.71893555 -0.30664062 7.22070312 C-0.2009774 4.81392973 -0.09887673 2.40706017 0 0 Z " fill="#080707" transform="translate(503,286)"/>
<path d="M0 0 C0.66 0 1.32 0 2 0 C3.05750593 13.01109969 3.10264806 25.9522906 3 39 C5.97 39 8.94 39 12 39 C12.33 39.99 12.66 40.98 13 42 C6.73 42 0.46 42 -6 42 C-0.01779961 42.209285 -0.01779961 42.209285 5.96533203 42.38793945 C11.00932521 42.60871487 14.58743801 43.30182685 19 46 C19 47.32 19 48.64 19 50 C18.01 50.99 18.01 50.99 17 52 C17 53.32 17 54.64 17 56 C17.7113208 56.2266333 18.4226416 56.4532666 19.15551758 56.68676758 C22.37763102 57.71922294 25.59502765 58.76567566 28.8125 59.8125 C29.93205078 60.16892578 31.05160156 60.52535156 32.20507812 60.89257812 C33.27822266 61.24384766 34.35136719 61.59511719 35.45703125 61.95703125 C36.44678955 62.27647705 37.43654785 62.59592285 38.45629883 62.92504883 C40.98992019 63.99574034 42.3387076 64.83020526 44 67 C44.09152344 67.82886719 44.18304687 68.65773438 44.27734375 69.51171875 C44.63505859 70.74341797 44.63505859 70.74341797 45 72 C47.97572198 73.70486569 47.97572198 73.70486569 51.5625 74.8125 C53.35880859 75.44091797 53.35880859 75.44091797 55.19140625 76.08203125 C56.11824219 76.38496094 57.04507813 76.68789063 58 77 C57.505 78.485 57.505 78.485 57 80 C54.93359375 80.73046875 54.93359375 80.73046875 52.4375 81.1875 C51.61121094 81.34605469 50.78492188 81.50460937 49.93359375 81.66796875 C48.97646484 81.83232422 48.97646484 81.83232422 48 82 C47.67 81.34 47.34 80.68 47 80 C47.495 78.515 47.495 78.515 48 77 C32.97390727 74.16540742 18.05932993 73.79021088 2.81640625 73.75976562 C-0.09925153 73.75008549 -3.01419467 73.71896569 -5.9296875 73.6875 C-25.96133584 73.07656303 -25.96133584 73.07656303 -45 78 C-42.69 78.33 -40.38 78.66 -38 79 C-39.375 81.125 -39.375 81.125 -42 83 C-47.02693644 82.766189 -51.58998469 81.38875829 -56 79 C-53.50844528 76.00168839 -51.12856053 75.26385454 -47.4375 74.1875 C-44.50424983 73.25053544 -44.50424983 73.25053544 -42 72 C-40.45673719 69.04004569 -40.45673719 69.04004569 -40 66 C-37.24965578 63.49547266 -34.52751661 62.31072183 -31.015625 61.17578125 C-30.08105469 60.86962891 -29.14648438 60.56347656 -28.18359375 60.24804688 C-26.73146484 59.78495117 -26.73146484 59.78495117 -25.25 59.3125 C-24.26644531 58.99216797 -23.28289062 58.67183594 -22.26953125 58.34179688 C-19.84847494 57.55436594 -17.42536241 56.77404508 -15 56 C-15 54.68 -15 53.36 -15 52 C-15.66 51.34 -16.32 50.68 -17 50 C-16.875 47.5 -16.875 47.5 -16 45 C-14.0625 43.9375 -14.0625 43.9375 -12 43 C-10.73195434 40.9664052 -10.73195434 40.9664052 -10 39 C-7.36 39 -4.72 39 -2 39 C-2.01160156 38.11957031 -2.02320313 37.23914063 -2.03515625 36.33203125 C-2.04417969 35.17058594 -2.05320312 34.00914062 -2.0625 32.8125 C-2.07410156 31.66394531 -2.08570313 30.51539063 -2.09765625 29.33203125 C-2 26 -2 26 -1.51367188 23.609375 C-1.00207487 21.01054002 -0.7971433 18.56205112 -0.68359375 15.91796875 C-0.62075195 14.52094727 -0.62075195 14.52094727 -0.55664062 13.09570312 C-0.51732422 12.13599609 -0.47800781 11.17628906 -0.4375 10.1875 C-0.37272461 8.71893555 -0.37272461 8.71893555 -0.30664062 7.22070312 C-0.2009774 4.81392973 -0.09887673 2.40706017 0 0 Z " fill="#080807" transform="translate(503,286)"/>
<path d="M0 0 C3.36337135 1.56199274 5.13104385 4.44786197 7.3203125 7.33203125 C11.38447688 12.43711026 14.56679137 15.33785346 20.95703125 17.25390625 C24.42482042 18.44009591 26.55952293 20.52246745 29.1953125 23.01953125 C29.03546875 23.63828125 28.875625 24.25703125 28.7109375 24.89453125 C28.26777966 27.58033634 28.10377367 29.99662111 28.0546875 32.70703125 C28.03535156 33.57070313 28.01601563 34.434375 27.99609375 35.32421875 C27.96224385 37.12086737 27.94401055 38.91787817 27.94140625 40.71484375 C27.81721499 45.09421978 27.69130496 47.35256832 25.01953125 50.9453125 C22.17545273 53.03411705 19.43802281 54.68036659 16.2578125 56.20703125 C14.75927734 56.93986328 14.75927734 56.93986328 13.23046875 57.6875 C8.10858994 59.93532583 3.94665154 61.28175903 -1.6796875 61.14453125 C-3.12988281 61.11746094 -3.12988281 61.11746094 -4.609375 61.08984375 C-5.33382812 61.06664062 -6.05828125 61.0434375 -6.8046875 61.01953125 C-6.83046875 60.42785156 -6.85625 59.83617187 -6.8828125 59.2265625 C-7.25914224 53.98360495 -7.81627834 50.78003131 -11.8046875 47.01953125 C-14.97957515 45.05151234 -17.3484427 44.79699849 -21.0546875 44.89453125 C-21.94671875 44.91257812 -22.83875 44.930625 -23.7578125 44.94921875 C-24.43328125 44.97242188 -25.10875 44.995625 -25.8046875 45.01953125 C-24.1843198 30.64942826 -24.1843198 30.64942826 -19.8046875 26.01953125 C-17.0546875 24.64453125 -17.0546875 24.64453125 -14.8046875 24.01953125 C-13.828125 25.80989583 -12.8515625 27.60026042 -11.875 29.390625 C-10.89058726 31.1857144 -10.89058726 31.1857144 -8.8046875 32.01953125 C-7.01326745 32.07071468 -5.22152309 32.11090431 -3.4296875 32.14453125 C1.70637001 32.528221 1.70637001 32.528221 3.80859375 34.640625 C4.8828125 36.58203125 4.8828125 36.58203125 6.1953125 40.01953125 C8.66798015 39.67508244 8.66798015 39.67508244 11.1953125 39.01953125 C12.42222317 36.56570991 12.39707181 34.81969022 12.4453125 32.08203125 C12.48398437 30.76912109 12.48398437 30.76912109 12.5234375 29.4296875 C12.37977211 27.00461208 12.37977211 27.00461208 10.9921875 25.29296875 C8.11711132 23.25541476 4.95868314 22.7626502 1.5703125 21.9609375 C-1.43774928 20.76859722 -2.33862221 19.90896089 -3.8046875 17.01953125 C-4.07090866 14.38022037 -4.18009909 12.02171904 -4.1171875 9.39453125 C-4.12202148 8.37359375 -4.12202148 8.37359375 -4.12695312 7.33203125 C-4.04773329 0.04380664 -4.04773329 0.04380664 0 0 Z " fill="#F2ECDF" transform="translate(564.8046875,521.98046875)"/>
<path d="M0 0 C0.66 0 1.32 0 2 0 C3.28709932 2.40910752 4.55417226 4.82590103 5.8125 7.25 C6.16892578 7.91257812 6.52535156 8.57515625 6.89257812 9.2578125 C11.98068185 19.15394085 13.5481099 29.21061327 13.4375 40.25 C13.42847656 41.34046631 13.41945313 42.43093262 13.41015625 43.55444336 C13.01303198 62.19860054 6.6365766 81.6499061 -7 95 C-9.234375 96.2578125 -9.234375 96.2578125 -11 97 C-12.32 95.35 -13.64 93.7 -15 92 C-14.25556641 91.12601563 -14.25556641 91.12601563 -13.49609375 90.234375 C1.39555234 72.26267308 6.70462032 53.07584424 5 30 C3.82647135 22.08592563 0.84095326 14.92228174 -3.2421875 8.0859375 C-4 6 -4 6 -3.2578125 3.8515625 C-2 2 -2 2 0 0 Z " fill="#D28142" transform="translate(577,362)"/>
<path d="M0 0 C3 0 3 0 4.8125 1.6875 C5.204375 2.450625 5.59625 3.21375 6 4 C5.265625 6.14453125 5.265625 6.14453125 4 9 C2.95602412 11.65781379 1.94983616 14.32999416 0.9375 17 C0.66873047 17.69867188 0.39996094 18.39734375 0.12304688 19.1171875 C-4.97822767 32.60185337 -4.90625482 49.44376178 0 63 C0.52787109 64.485 0.52787109 64.485 1.06640625 66 C4.64815382 75.26762408 9.72556459 83.32514355 16 91 C15.34 92.65 14.68 94.3 14 96 C10 96 10 96 8.2890625 94.6015625 C-8.04309264 75.20233597 -12.8418392 52.89261556 -11 28 C-9.42955851 18.00960568 -4.84109557 8.78384351 0 0 Z " fill="#D07E3D" transform="translate(431,362)"/>
<path d="M0 0 C7.48262915 13.41712812 9.15297414 29.06300778 5.94921875 44.08203125 C2.91644511 53.40500208 -2.05558845 64.88581997 -10 71 C-10.99 71 -11.98 71 -13 71 C-15 68 -15 68 -14.828125 66.08984375 C-13.81957886 63.54469193 -12.42812618 61.72582354 -10.75 59.5625 C-1.9512117 47.3781697 0.31010575 33.6719125 -1 19 C-1.97104952 14.80683162 -3.37736696 10.97512513 -5 7 C-5.70703125 4.7890625 -5.70703125 4.7890625 -6 3 C-4.04862098 0.26806937 -3.44686768 0 0 0 Z " fill="#CF7D3D" transform="translate(566,375)"/>
<path d="M0 0 C1.65 1.32 3.3 2.64 5 4 C4.80664062 4.64066406 4.61328125 5.28132813 4.4140625 5.94140625 C4.15367187 6.80636719 3.89328125 7.67132813 3.625 8.5625 C3.36976563 9.40941406 3.11453125 10.25632812 2.8515625 11.12890625 C2.57054687 12.07636719 2.28953125 13.02382813 2 14 C1.64292969 15.11890625 1.28585937 16.2378125 0.91796875 17.390625 C-2.54147017 30.99284441 0.58786739 44.66558355 7.43359375 56.58984375 C8.81548723 58.7160988 10.24544723 60.55691767 11.9375 62.4375 C14 65 14 65 14.0625 67.25 C12.71917828 69.4625299 11.31099113 69.93554348 9 71 C-2.99403431 58.93499507 -8.24221442 43.31074011 -8.39379883 26.54589844 C-8.23445521 17.61859589 -5.93751219 6.89517544 0 0 Z " fill="#CF7D3C" transform="translate(445,375)"/>
<path d="M0 0 C3.63 0 7.26 0 11 0 C11 22.11 11 44.22 11 67 C9.30096813 63.60193627 8.61974316 61.66881824 8.05444336 58.0546875 C7.8976561 57.07266357 7.74086884 56.09063965 7.57933044 55.07885742 C7.41779984 54.02158447 7.25626923 52.96431152 7.08984375 51.875 C6.83129356 50.22818237 6.83129356 50.22818237 6.56752014 48.5480957 C6.20383342 46.22185344 5.84343885 43.89509446 5.48608398 41.56787109 C4.94365002 38.03999838 4.38968975 34.51408498 3.83398438 30.98828125 C3.48107693 28.72146209 3.12884245 26.45453803 2.77734375 24.1875 C2.61378891 23.1464209 2.45023407 22.1053418 2.28172302 21.03271484 C1.21383066 14.0315466 0.52440445 7.063165 0 0 Z " fill="#E0E0D9" transform="translate(487,381)"/>
<path d="M0 0 C2.92818981 0.0314542 5.85583652 0.04102611 8.78417969 0.046875 C36.33471459 0.1582293 36.33471459 0.1582293 45.90917969 2.84375 C46.89660156 3.11316406 47.88402344 3.38257813 48.90136719 3.66015625 C49.60519531 3.86511719 50.30902344 4.07007813 51.03417969 4.28125 C51.03417969 4.94125 51.03417969 5.60125 51.03417969 6.28125 C20.01417969 6.28125 -11.00582031 6.28125 -42.96582031 6.28125 C-39.2620939 2.57752359 -36.17799448 2.29957649 -31.20800781 1.609375 C-30.3250705 1.48282532 -29.44213318 1.35627563 -28.53244019 1.22589111 C-19.02748344 -0.01772863 -9.5718776 -0.10330526 0 0 Z " fill="#F5F4F0" transform="translate(499.9658203125,358.71875)"/>
<path d="M0 0 C3.63 0 7.26 0 11 0 C10.41664376 9.78919716 8.84807185 19.24480787 7.04370117 28.8659668 C6.55915175 31.45539299 6.08663493 34.04682325 5.61523438 36.63867188 C5.30800059 38.29961046 5.0000826 39.96042266 4.69140625 41.62109375 C4.55174942 42.38884628 4.41209259 43.15659882 4.26820374 43.94761658 C3.53209396 47.83186197 2.63213415 51.39308601 1 55 C0.67 55 0.34 55 0 55 C0 36.85 0 18.7 0 0 Z " fill="#EEEDE6" transform="translate(510,381)"/>
<path d="M0 0 C5.24367728 11.6272844 5.31314865 22.91352748 1 35 C-1.72212875 40.68674599 -4.60309094 45.50788237 -10 49 C-11.32 47.68 -12.64 46.36 -14 45 C-12.09599164 41.02721332 -9.77523921 37.36150653 -7.4375 33.6328125 C-4.49608671 28.24555011 -3.72495763 23.6790977 -3.75 17.5625 C-3.74226562 15.67724609 -3.74226562 15.67724609 -3.734375 13.75390625 C-4.01269333 9.82061335 -4.78725338 6.72967712 -6 3 C-3.375 0 -3.375 0 0 0 Z " fill="#CE8040" transform="translate(553,386)"/>
<path d="M0 0 C0.99237167 -0.00300613 0.99237167 -0.00300613 2.00479126 -0.006073 C14.25992944 -0.0151458 27.07607804 0.33785935 38.8125 4.25 C38.4825 5.9 38.1525 7.55 37.8125 9.25 C36.51119141 9.15912109 36.51119141 9.15912109 35.18359375 9.06640625 C20.07454857 8.09114514 4.94452794 7.69602983 -10.1875 7.25 C-10.1875 6.92 -10.1875 6.59 -10.1875 6.25 C-8.5375 6.25 -6.8875 6.25 -5.1875 6.25 C-5.1875 5.59 -5.1875 4.93 -5.1875 4.25 C-16.08511308 4.0428648 -26.45883239 4.09270956 -37.1875 6.25 C-36.8575 5.59 -36.5275 4.93 -36.1875 4.25 C-33.80069118 3.62800119 -31.48381906 3.12416918 -29.0625 2.6875 C-28.41023438 2.56181641 -27.75796875 2.43613281 -27.0859375 2.30664062 C-17.97076998 0.57946107 -9.26069356 0.02250963 0 0 Z " fill="#1D1C1B" transform="translate(504.1875,351.75)"/>
<path d="M0 0 C2.4375 0.8125 2.4375 0.8125 5 2 C6.2779333 5.83379991 5.26277109 7.22080421 4 11 C3.06406034 21.36826661 3.7166901 30.03190954 10.25 38.3125 C10.79140625 38.92738281 11.3328125 39.54226563 11.890625 40.17578125 C13 42 13 42 12.734375 44.10546875 C12 46 12 46 11 48 C7.46800475 47.44431971 6.11274588 46.41585517 4 43.5625 C-2.8142413 33.97080844 -4.84720135 23.58799131 -4 12 C-3.09432572 7.82723078 -1.91253229 3.82506457 0 0 Z " fill="#CE7F40" transform="translate(457,386)"/>
<path d="M0 0 C3.1258562 2.40701819 3.94022241 3.60850492 4.54589844 7.57519531 C4.58697019 8.99240141 4.60696586 10.41032592 4.609375 11.828125 C4.62591125 12.57713074 4.64244751 13.32613647 4.65948486 14.09783936 C4.7079351 16.48197654 4.72932772 18.86547611 4.75 21.25 C4.7781624 22.86982369 4.80809022 24.48961772 4.83984375 26.109375 C4.91369244 30.07286414 4.96328457 34.03599998 5 38 C5.33 38 5.66 38 6 38 C6.06058594 38.84304688 6.12117187 39.68609375 6.18359375 40.5546875 C6.26738281 41.65039062 6.35117187 42.74609375 6.4375 43.875 C6.55931641 45.51082031 6.55931641 45.51082031 6.68359375 47.1796875 C6.83001703 49.94728971 6.83001703 49.94728971 8 52 C7.01 52 6.02 52 5 52 C4.34 55.96 3.68 59.92 3 64 C2.67 64 2.34 64 2 64 C-0.07413962 42.63250048 -0.22932298 21.4452271 0 0 Z " fill="#E6E3D8" transform="translate(514,455)"/>
<path d="M0 0 C2.31 0.33 4.62 0.66 7 1 C5.67306156 16.46930868 2.68997116 31.72354805 0 47 C-0.66 45.68 -1.32 44.36 -2 43 C-2.66 43.99 -3.32 44.98 -4 46 C-5.31219106 40.59149077 -4.59709103 36.23628754 -3.56640625 30.8828125 C-3.40961899 30.02565643 -3.25283173 29.16850037 -3.09129333 28.28536987 C-2.59116121 25.56339578 -2.07705597 22.84428038 -1.5625 20.125 C-1.21977572 18.27360894 -0.87796875 16.42204782 -0.53710938 14.5703125 C0.29798466 10.04483685 1.14561526 5.52187163 2 1 C1.34 0.67 0.68 0.34 0 0 Z " fill="#131312" transform="translate(519,380)"/>
<path d="M0 0 C0.66 0 1.32 0 2 0 C3.05750593 13.01109969 3.10264806 25.9522906 3 39 C5.97 39 8.94 39 12 39 C12.33 39.99 12.66 40.98 13 42 C6.73 42 0.46 42 -6 42 C-6.33 42.66 -6.66 43.32 -7 44 C-8.65 43.67 -10.3 43.34 -12 43 C-11.34 41.68 -10.68 40.36 -10 39 C-7.36 39 -4.72 39 -2 39 C-2.01160156 38.11957031 -2.02320313 37.23914063 -2.03515625 36.33203125 C-2.04417969 35.17058594 -2.05320312 34.00914062 -2.0625 32.8125 C-2.07990234 31.08966797 -2.07990234 31.08966797 -2.09765625 29.33203125 C-2 26 -2 26 -1.51367188 23.609375 C-1.00207487 21.01054002 -0.7971433 18.56205112 -0.68359375 15.91796875 C-0.64169922 14.98662109 -0.59980469 14.05527344 -0.55664062 13.09570312 C-0.51732422 12.13599609 -0.47800781 11.17628906 -0.4375 10.1875 C-0.39431641 9.20845703 -0.35113281 8.22941406 -0.30664062 7.22070312 C-0.2009774 4.81392973 -0.09887673 2.40706017 0 0 Z " fill="#212120" transform="translate(503,286)"/>
<path d="M0 0 C2.91794392 6.43353901 3.2693719 13.20199881 1.01953125 19.93359375 C-2.39349509 27.16920959 -2.39349509 27.16920959 -7 29 C-9.19355972 24.68190867 -9.19355972 24.68190867 -8.3203125 21.60546875 C-7.92585937 20.80753906 -7.53140625 20.00960938 -7.125 19.1875 C-4.54514931 13.35894845 -3.93220942 8.20337173 -6 2 C-3 0 -3 0 0 0 Z " fill="#CD7C3B" transform="translate(540,394)"/>
<path d="M0 0 C2.27536841 3.41305262 2.51797077 5.46399938 3.03515625 9.50390625 C3.20466797 10.80263672 3.37417969 12.10136719 3.54882812 13.43945312 C3.72011058 14.81379479 3.89133416 16.1881438 4.0625 17.5625 C4.23694042 18.90959471 4.4120639 20.25660116 4.58789062 21.60351562 C5.50406946 28.72584077 6.34505863 35.84871955 7 43 C4.69 43 2.38 43 0 43 C0 28.81 0 14.62 0 0 Z " fill="#F1F1EA" transform="translate(510,524)"/>
<path d="M0 0 C2.475 0.99 2.475 0.99 5 2 C4.95359375 2.92941406 4.9071875 3.85882813 4.859375 4.81640625 C4.35742892 12.83747042 4.35742892 12.83747042 7.125 20.125 C7.74375 21.07375 8.3625 22.0225 9 23 C8.4375 25.375 8.4375 25.375 7 27 C6.01 27.33 5.02 27.66 4 28 C-1.59534623 20.92255313 -2.62040269 14.99399361 -2.40625 6.22265625 C-2 3 -2 3 0 0 Z " fill="#CE8042" transform="translate(470,395)"/>
<path d="M0 0 C0 0.33 0 0.66 0 1 C-3.63 1.33 -7.26 1.66 -11 2 C-11 2.33 -11 2.66 -11 3 C9.295 3.495 9.295 3.495 30 4 C30 4.33 30 4.66 30 5 C7.23 5.33 -15.54 5.66 -39 6 C-35.61945618 2.61945618 -35.61945618 2.61945618 -31.89453125 2.05078125 C-31.08274414 1.92485596 -30.27095703 1.79893066 -29.43457031 1.66918945 C-28.56928711 1.55148193 -27.70400391 1.43377441 -26.8125 1.3125 C-25.48557129 1.12143677 -25.48557129 1.12143677 -24.13183594 0.92651367 C-16.05049621 -0.1543329 -8.14206736 -0.30703327 0 0 Z " fill="#C9C8C1" transform="translate(496,359)"/>
<path d="M0 0 C0.66124878 -0.00167175 1.32249756 -0.00334351 2.00378418 -0.00506592 C13.40403073 -0.00678936 24.69567809 0.55725869 35.8125 3.25 C36.8025 4.24 36.8025 4.24 37.8125 5.25 C37.18085937 5.18941406 36.54921875 5.12882812 35.8984375 5.06640625 C11.15288602 2.74873932 -12.59607979 2.663078 -37.1875 6.25 C-36.8575 5.59 -36.5275 4.93 -36.1875 4.25 C-33.80069118 3.62800119 -31.48381906 3.12416918 -29.0625 2.6875 C-28.41023438 2.56181641 -27.75796875 2.43613281 -27.0859375 2.30664062 C-17.97089004 0.57948381 -9.26063376 0.02193369 0 0 Z " fill="#BBBAB8" transform="translate(504.1875,351.75)"/>
<path d="M0 0 C0.66 0 1.32 0 2 0 C2.10251672 5.12583611 2.03590199 9.94997778 1 15 C3.475 16.98 3.475 16.98 6 19 C6.33 17.02 6.66 15.04 7 13 C7.33 13 7.66 13 8 13 C8 15.64 8 18.28 8 21 C7.360625 21.103125 6.72125 21.20625 6.0625 21.3125 C5.381875 21.539375 4.70125 21.76625 4 22 C3.67 22.99 3.34 23.98 3 25 C2.278125 24.236875 1.55625 23.47375 0.8125 22.6875 C-1.69790967 20.28866409 -3.96808302 18.64589779 -7 17 C-6.5359375 15.7625 -6.5359375 15.7625 -6.0625 14.5 C-4.88122417 10.60873845 -4.41775832 7.03833047 -4 3 C-3.34 4.32 -2.68 5.64 -2 7 C-1.34 7 -0.68 7 0 7 C0 4.69 0 2.38 0 0 Z " fill="#EDE6D5" transform="translate(503,566)"/>
<path d="M0 0 C2 2 2 2 2 5 C2.66 5 3.32 5 4 5 C4.19330021 10.14079226 4.3718502 15.28181376 4.53710938 20.42358398 C4.5952903 22.17046635 4.65740806 23.91722244 4.72363281 25.66381836 C4.81845972 28.18319686 4.8988348 30.70269909 4.9765625 33.22265625 C5.00875885 33.99585709 5.0409552 34.76905792 5.0741272 35.56568909 C5.2076749 40.46644964 4.57725316 44.35167883 3 49 C2.67 49 2.34 49 2 49 C1.67 36.46 1.34 23.92 1 11 C0.34 11.66 -0.32 12.32 -1 13 C-0.67 8.71 -0.34 4.42 0 0 Z " fill="#F8F8F0" transform="translate(516,448)"/>
<path d="M0 0 C0.66 0 1.32 0 2 0 C2.95376567 3.20782086 3.11621181 6.08187396 3.09765625 9.421875 C3.09443359 10.44667969 3.09121094 11.47148437 3.08789062 12.52734375 C3.07951172 13.59082031 3.07113281 14.65429688 3.0625 15.75 C3.05798828 16.82894531 3.05347656 17.90789062 3.04882812 19.01953125 C3.03705727 21.67974383 3.02061399 24.33984365 3 27 C2.01 26.67 1.02 26.34 0 26 C-0.33 25.01 -0.66 24.02 -1 23 C-1.33 24.65 -1.66 26.3 -2 28 C-2.33 28 -2.66 28 -3 28 C-2.54362211 18.53616378 -1.81847768 9.32190498 0 0 Z " fill="#E4E3DC" transform="translate(518,427)"/>
<path d="M0 0 C1.32 0.66 2.64 1.32 4 2 C4.33 1.34 4.66 0.68 5 0 C6.07558786 4.82886299 5.81674203 9.04035541 5.0625 13.875 C4.96259766 14.56335938 4.86269531 15.25171875 4.75976562 15.9609375 C4.51463547 17.64182997 4.25845587 19.32110487 4 21 C3.67 21 3.34 21 3 21 C2.67 19.35 2.34 17.7 2 16 C1.01 15.67 0.02 15.34 -1 15 C-1.33 15.66 -1.66 16.32 -2 17 C-1.34 11.39 -0.68 5.78 0 0 Z " fill="#EAE1CD" transform="translate(483,522)"/>
<path d="M0 0 C1.65 1.32 3.3 2.64 5 4 C4.54965877 5.62723299 4.08944646 7.25173664 3.625 8.875 C3.36976563 9.77992188 3.11453125 10.68484375 2.8515625 11.6171875 C2 14 2 14 0 16 C-0.99 14.68 -1.98 13.36 -3 12 C-3.99 12.495 -3.99 12.495 -5 13 C-4.54996653 7.37458159 -3.31558515 4.38512875 0 0 Z " fill="#D08242" transform="translate(445,375)"/>
<path d="M0 0 C-0.99 0.66 -1.98 1.32 -3 2 C-2.67 2.66 -2.34 3.32 -2 4 C0.32156597 4.40729228 2.6568787 4.74438677 5 5 C3.625 7.125 3.625 7.125 1 9 C-4.02693644 8.766189 -8.58998469 7.38875829 -13 5 C-10.83470418 2.58355702 -8.97842441 1.36405829 -5.9375 0.25 C-4.89916016 -0.14445312 -4.89916016 -0.14445312 -3.83984375 -0.546875 C-2 -1 -2 -1 0 0 Z " fill="#272724" transform="translate(460,360)"/>
<path d="M0 0 C0.66 0.33 1.32 0.66 2 1 C1.57847656 1.53367187 1.15695312 2.06734375 0.72265625 2.6171875 C-3.52048675 8.38786198 -4.9701483 12.85051779 -5 20 C-5.33 20 -5.66 20 -6 20 C-6.33 16.37 -6.66 12.74 -7 9 C-8.0725 8.87625 -9.145 8.7525 -10.25 8.625 C-13.44666333 8.09222278 -15.24091652 7.50162508 -18 6 C-17.05640625 5.85304688 -17.05640625 5.85304688 -16.09375 5.703125 C-11.53814139 4.90726566 -7.60369956 3.99259039 -3.5 1.8125 C-2.345 1.214375 -1.19 0.61625 0 0 Z " fill="#ECDCC1" transform="translate(586,588)"/>
<path d="M0 0 C0.66 0 1.32 0 2 0 C2.05791844 3.12492251 2.09356746 6.24970766 2.125 9.375 C2.14175781 10.26445313 2.15851563 11.15390625 2.17578125 12.0703125 C2.18222656 12.92109375 2.18867188 13.771875 2.1953125 14.6484375 C2.20578613 15.43395996 2.21625977 16.21948242 2.22705078 17.02880859 C2 19 2 19 0 21 C-1.88646933 17.00248167 -2.27024973 13.77931569 -2.25 9.375 C-2.25515625 8.24835937 -2.2603125 7.12171875 -2.265625 5.9609375 C-2 3 -2 3 0 0 Z " fill="#CF7731" transform="translate(390,591)"/>
<path d="M0 0 C1.32 0 2.64 0 4 0 C3.56021081 3.5916117 3.01205017 6.95857755 2 10.4375 C0.90639076 14.33348292 0.42295668 17.98191155 0 22 C-0.33 22 -0.66 22 -1 22 C-1.06058594 21.22914063 -1.12117188 20.45828125 -1.18359375 19.6640625 C-1.26738281 18.66117188 -1.35117187 17.65828125 -1.4375 16.625 C-1.51871094 15.62726562 -1.59992188 14.62953125 -1.68359375 13.6015625 C-1.84965626 11.02072387 -1.84965626 11.02072387 -3 9 C-2.44140625 6.8359375 -2.44140625 6.8359375 -1.5625 4.375 C-1.27503906 3.55773437 -0.98757813 2.74046875 -0.69140625 1.8984375 C-0.46324219 1.27195312 -0.23507812 0.64546875 0 0 Z " fill="#EBE2CF" transform="translate(486,639)"/>
<path d="M0 0 C3.45743005 2.85237979 4.89859263 4.14528078 5.4375 8.6875 C5 12 5 12 3 14 C0.375 13.625 0.375 13.625 -2 13 C-2 11.68 -2 10.36 -2 9 C-1.34 8.67 -0.68 8.34 0 8 C0.65555119 5.47266765 0.65555119 5.47266765 1 3 C0.01 2.67 -0.98 2.34 -2 2 C-1.34 1.34 -0.68 0.68 0 0 Z " fill="#D28442" transform="translate(624,605)"/>
<path d="M0 0 C0.99 0.33 1.98 0.66 3 1 C3.625 2.75 3.625 2.75 4 5 C4.226875 5.86625 4.45375 6.7325 4.6875 7.625 C4.790625 8.40875 4.89375 9.1925 5 10 C4.34 10.66 3.68 11.32 3 12 C2.01 12 1.02 12 0 12 C-2.01151741 12.63106429 -4.01363702 13.29373761 -6 14 C-5.65066406 13.24074219 -5.30132813 12.48148437 -4.94140625 11.69921875 C-4.25884766 10.20841797 -4.25884766 10.20841797 -3.5625 8.6875 C-3.11003906 7.70136719 -2.65757812 6.71523438 -2.19140625 5.69921875 C-0.94268008 2.98434301 -0.94268008 2.98434301 0 0 Z " fill="#D48A4A" transform="translate(563,419)"/>
<path d="M0 0 C0.99 0 1.98 0 3 0 C4.51516221 3.03032442 4.17028053 5.65114962 4 9 C3 11.9375 3 11.9375 2 14 C1.34 14 0.68 14 0 14 C-0.99 10.37 -1.98 6.74 -3 3 C-2.01 2.01 -1.02 1.02 0 0 Z " fill="#C77332" transform="translate(550,386)"/>
<path d="M0 0 C0.99 0.66 1.98 1.32 3 2 C2.72345583 5.14735717 2.4262444 8.29241854 2.125 11.4375 C2.04636719 12.33533203 1.96773437 13.23316406 1.88671875 14.15820312 C1.80292969 15.01220703 1.71914063 15.86621094 1.6328125 16.74609375 C1.55949707 17.53685303 1.48618164 18.3276123 1.41064453 19.14233398 C1.27513184 19.75536377 1.13961914 20.36839355 1 21 C0.34 21.33 -0.32 21.66 -1 22 C-2.09995958 18.70012125 -2.16747591 16.15967713 -2.1875 12.6875 C-2.20167969 11.57761719 -2.21585938 10.46773437 -2.23046875 9.32421875 C-1.99333157 5.9038164 -1.22108501 3.19026557 0 0 Z " fill="#FAFAF1" transform="translate(519,506)"/>
<path d="M0 0 C0.33 0 0.66 0 1 0 C1.33 3.96 1.66 7.92 2 12 C2.33 12 2.66 12 3 12 C3.36666667 17.5 3.36666667 17.5 1.625 19.875 C0 21 0 21 -2 21 C-2.3690205 6.21867882 -2.3690205 6.21867882 0 0 Z " fill="#F7F6EF" transform="translate(498,301)"/>
<path d="M0 0 C3.96 1.32 7.92 2.64 12 4 C11.67 4.99 11.34 5.98 11 7 C8.93359375 7.73046875 8.93359375 7.73046875 6.4375 8.1875 C5.61121094 8.34605469 4.78492188 8.50460937 3.93359375 8.66796875 C3.29550781 8.77753906 2.65742187 8.88710938 2 9 C1.67 8.34 1.34 7.68 1 7 C1.33 6.01 1.66 5.02 2 4 C1.01 3.67 0.02 3.34 -1 3 C-0.67 2.01 -0.34 1.02 0 0 Z " fill="#151413" transform="translate(549,359)"/>
<path d="M0 0 C1.85131483 3.92857754 2.22004943 6.98775112 2.125 11.3125 C2.10695313 12.38113281 2.08890625 13.44976562 2.0703125 14.55078125 C2.03550781 15.76314453 2.03550781 15.76314453 2 17 C1.67 17 1.34 17 1 17 C0.938125 16.113125 0.87625 15.22625 0.8125 14.3125 C-0.18828063 10.23239435 -2.00190942 8.84818605 -5 6 C-5.8125 3.6875 -5.8125 3.6875 -6 2 C-3 0 -3 0 0 0 Z " fill="#D39057" transform="translate(540,394)"/>
<path d="M0 0 C0.33 0 0.66 0 1 0 C1.30854946 11.46204123 1.39129971 21.93790332 -2 33 C-3.27964684 29.20880748 -2.92801328 25.76395701 -2.625 21.8125 C-2.53476562 20.56082031 -2.44453125 19.30914062 -2.3515625 18.01953125 C-2 15 -2 15 -1 14 C-0.76472227 11.65012738 -0.58613583 9.29443961 -0.4375 6.9375 C-0.35371094 5.64714844 -0.26992188 4.35679687 -0.18359375 3.02734375 C-0.12300781 2.02832031 -0.06242188 1.02929688 0 0 Z " fill="#EDDFC9" transform="translate(582,392)"/>
<path d="M0 0 C2.34770643 3.52155964 2.37669614 5.50771843 2.625 9.6875 C2.69976563 10.86699219 2.77453125 12.04648437 2.8515625 13.26171875 C2.90054688 14.16535156 2.94953125 15.06898438 3 16 C2.34 16 1.68 16 1 16 C1 19.3 1 22.6 1 26 C0.67 26 0.34 26 0 26 C0 17.42 0 8.84 0 0 Z " fill="#E4E3D8" transform="translate(510,524)"/>
<path d="M0 0 C0.99 0.33 1.98 0.66 3 1 C2.44894091 4.9492568 1.61064629 8.34920174 0 12 C-0.66 12 -1.32 12 -2 12 C-3.25 9.9375 -3.25 9.9375 -4 7 C-2.95421827 4.39093631 -1.57355686 2.36033529 0 0 Z " fill="#C06D2E" transform="translate(535,411)"/>
<path d="M0 0 C2 2 2 2 2.265625 4.53125 C2.26046875 5.5109375 2.2553125 6.490625 2.25 7.5 C2.25515625 8.4796875 2.2603125 9.459375 2.265625 10.46875 C2 13 2 13 0 15 C-2 13 -2 13 -2.25 9.1875 C-2.17480324 5.74724834 -1.55549361 3.11098721 0 0 Z " fill="#D58B4B" transform="translate(620,583)"/>
<path d="M0 0 C0.99 0.66 1.98 1.32 3 2 C2.67 4.97 2.34 7.94 2 11 C1.34 11 0.68 11 0 11 C-0.33 11.66 -0.66 12.32 -1 13 C-1.66 9.37 -2.32 5.74 -3 2 C-2.01 1.34 -1.02 0.68 0 0 Z " fill="#F4EDDA" transform="translate(501,562)"/>
<path d="M0 0 C0.33 0.99 0.66 1.98 1 3 C-0.07421875 4.97265625 -0.07421875 4.97265625 -1.6875 7.0625 C-2.20699219 7.75472656 -2.72648438 8.44695313 -3.26171875 9.16015625 C-5.06223358 11.0658697 -6.60035853 11.99100043 -9 13 C-9.33 11.35 -9.66 9.7 -10 8 C-9.34 7.67 -8.68 7.34 -8 7 C-7.67 6.34 -7.34 5.68 -7 5 C-7 5.66 -7 6.32 -7 7 C-3.17053157 5.54744301 -1.87949705 3.57104439 0 0 Z " fill="#EAE0CE" transform="translate(535,594)"/>
<path d="M0 0 C0.33 0 0.66 0 1 0 C1.10787818 2.77186988 1.18723327 5.53955537 1.25 8.3125 C1.28351563 9.09818359 1.31703125 9.88386719 1.3515625 10.69335938 C1.38855392 12.86660547 1.38367634 14.85969901 1 17 C-1.015625 19.04296875 -1.015625 19.04296875 -3 20 C-2.69055299 17.41626766 -2.37756043 14.83304867 -2.0625 12.25 C-1.97548828 11.52039063 -1.88847656 10.79078125 -1.79882812 10.0390625 C-1.37972591 6.62415558 -0.882726 3.32396457 0 0 Z " fill="#DADAD0" transform="translate(496,521)"/>
<path d="M0 0 C-1.30224633 2.90501104 -2.37577945 5.15013961 -5 7 C-7.67108574 7.05546517 -10.05292823 6.96547069 -12.6875 6.6875 C-13.38939453 6.62626953 -14.09128906 6.56503906 -14.81445312 6.50195312 C-16.5442967 6.34897376 -18.27238497 6.17637398 -20 6 C-20 5.67 -20 5.34 -20 5 C-16.04 5 -12.08 5 -8 5 C-8 4.34 -8 3.68 -8 3 C-2.25 0 -2.25 0 0 0 Z " fill="#ECD8BE" transform="translate(427,523)"/>
<path d="M0 0 C2 2 2 2 2 4 C-1.96 4 -5.92 4 -10 4 C-10 3.01 -10 2.02 -10 1 C-3.375 -1.125 -3.375 -1.125 0 0 Z " fill="#F7F6F1" transform="translate(538,381)"/>
<path d="M0 0 C4.55737263 0.43820891 7.57653445 0.85041169 11 4 C7.23375329 5.25541557 5.62811066 4.37061958 2 3 C2.061875 4.11375 2.12375 5.2275 2.1875 6.375 C2.125625 7.57125 2.06375 8.7675 2 10 C1.01 10.66 0.02 11.32 -1 12 C-0.67 8.04 -0.34 4.08 0 0 Z " fill="#EBDCC3" transform="translate(410,615)"/>
<path d="M0 0 C0.66 0.99 1.32 1.98 2 3 C1.67 3.99 1.34 4.98 1 6 C0.7834375 7.2684375 0.7834375 7.2684375 0.5625 8.5625 C0 11 0 11 -2 13 C-2.88778692 14.96488831 -2.88778692 14.96488831 -3.625 17.125 C-3.88539063 17.84945312 -4.14578125 18.57390625 -4.4140625 19.3203125 C-4.60742188 19.87460937 -4.80078125 20.42890625 -5 21 C-6.05711427 17.80042565 -5.95184778 16.03354912 -4.78515625 12.890625 C-4.51123047 12.13652344 -4.23730469 11.38242187 -3.95507812 10.60546875 C-3.51325195 9.43951172 -3.51325195 9.43951172 -3.0625 8.25 C-2.77181641 7.45722656 -2.48113281 6.66445313 -2.18164062 5.84765625 C-1.46405186 3.89487371 -0.73329094 1.94694059 0 0 Z " fill="#D69255" transform="translate(396,564)"/>
<path d="M0 0 C3.65316671 1.24976756 4.78065836 1.67098753 7 5 C4.525 6.485 4.525 6.485 2 8 C0.35 6.35 -1.3 4.7 -3 3 C-2.34 3 -1.68 3 -1 3 C-0.67 2.01 -0.34 1.02 0 0 Z " fill="#EAE3CF" transform="translate(495,557)"/>
<path d="M0 0 C2.97 0 5.94 0 9 0 C9 0.99 9 1.98 9 3 C9.99 3.33 10.98 3.66 12 4 C10.56589632 4.24954005 9.12739928 4.47392642 7.6875 4.6875 C6.88699219 4.81511719 6.08648438 4.94273437 5.26171875 5.07421875 C3 5 3 5 1.20703125 3.64453125 C0 2 0 2 0 0 Z " fill="#D68F54" transform="translate(596,611)"/>
<path d="M0 0 C1.65 0 3.3 0 5 0 C4.01 1.485 4.01 1.485 3 3 C2.34 3 1.68 3 1 3 C1.03480469 3.77085937 1.06960938 4.54171875 1.10546875 5.3359375 C1.13253906 6.33882812 1.15960937 7.34171875 1.1875 8.375 C1.22230469 9.37273438 1.25710938 10.37046875 1.29296875 11.3984375 C1.19628906 12.25695312 1.09960938 13.11546875 1 14 C0.01 14.66 -0.98 15.32 -2 16 C-1.85764543 14.27054347 -1.71095618 12.54144346 -1.5625 10.8125 C-1.48128906 9.84957031 -1.40007813 8.88664063 -1.31640625 7.89453125 C-1.02333849 5.21350398 -0.57296246 2.6337014 0 0 Z " fill="#F4EBD8" transform="translate(567,595)"/>
<path d="M0 0 C0.33 0 0.66 0 1 0 C0.37802877 6.33881314 -0.28542887 12.67094142 -1 19 C-1.33 19 -1.66 19 -2 19 C-2.84681133 13.91913204 -3.09038099 9.15171623 -3 4 C-2.01 4 -1.02 4 0 4 C0 2.68 0 1.36 0 0 Z " fill="#D58D51" transform="translate(566,595)"/>
<path d="M0 0 C0.33 0 0.66 0 1 0 C1 2.64 1 5.28 1 8 C0.360625 8.103125 -0.27875 8.20625 -0.9375 8.3125 C-1.9584375 8.6528125 -1.9584375 8.6528125 -3 9 C-3.33 9.99 -3.66 10.98 -4 12 C-4.66 10.68 -5.32 9.36 -6 8 C-5.34 7.67 -4.68 7.34 -4 7 C-4.99 6.34 -5.98 5.68 -7 5 C-7 4.34 -7 3.68 -7 3 C-4.13275314 3.57344937 -3.1385485 3.8614515 -1 6 C-0.67 4.02 -0.34 2.04 0 0 Z " fill="#DAD5C7" transform="translate(510,579)"/>
<path d="M0 0 C-1.65 0.66 -3.3 1.32 -5 2 C-5 2.99 -5 3.98 -5 5 C-7.31 5.33 -9.62 5.66 -12 6 C-12 5.01 -12 4.02 -12 3 C-10.3789897 2.30314502 -8.75303934 1.61777139 -7.125 0.9375 C-6.22007812 0.55464844 -5.31515625 0.17179687 -4.3828125 -0.22265625 C-2 -1 -2 -1 0 0 Z " fill="#20201D" transform="translate(460,360)"/>
<path d="M0 0 C0 0.66 0 1.32 0 2 C-1.95803507 2.05389087 -3.91648909 2.09274217 -5.875 2.125 C-6.96554687 2.14820313 -8.05609375 2.17140625 -9.1796875 2.1953125 C-12 2 -12 2 -14 0 C-9.32517708 -1.49594333 -4.64398011 -1.54799337 0 0 Z " fill="#D9D9D5" transform="translate(551,363)"/>
<path d="M0 0 C1 3 1 3 0.375 4.75 C-0.26162341 7.26642938 -0.26162341 7.26642938 1.5625 10.375 C3 14 3 14 2.1875 17.4375 C1.795625 18.283125 1.40375 19.12875 1 20 C0.67 20 0.34 20 0 20 C-0.33848652 18.10507994 -0.67056911 16.20901534 -1 14.3125 C-1.185625 13.25675781 -1.37125 12.20101562 -1.5625 11.11328125 C-2.58031088 3.87046632 -2.58031088 3.87046632 0 0 Z " fill="#ECDCC1" transform="translate(425,548)"/>
<path d="M0 0 C0.99 0.33 1.98 0.66 3 1 C2.071875 2.1446875 2.071875 2.1446875 1.125 3.3125 C-1.872733 7.72405743 -2.29908821 12.8169418 -3 18 C-3.33 18 -3.66 18 -4 18 C-4.02725341 16.2709226 -4.04650987 14.54171824 -4.0625 12.8125 C-4.07410156 11.84957031 -4.08570313 10.88664063 -4.09765625 9.89453125 C-4.00311975 7.09246932 -3.81147811 4.68483328 -3 2 C-2.01 1.34 -1.02 0.68 0 0 Z " fill="#D2894E" transform="translate(543,547)"/>
<path d="M0 0 C1.3357457 3.77371512 0.72408671 6.85831347 0.0625 10.75 C-0.13214844 11.92046875 -0.32679688 13.0909375 -0.52734375 14.296875 C-0.68332031 15.18890625 -0.83929688 16.0809375 -1 17 C-3.38370909 14.61629091 -3.29588602 14.0063401 -3.3125 10.75 C-3.23737929 6.5227526 -2.23998949 3.63998292 0 0 Z " fill="#D58E51" transform="translate(485,505)"/>
<path d="M0 0 C2 3 2 3 2 6 C1.34 6.66 0.68 7.32 0 8 C-0.40047444 10.32275177 -0.7397104 12.65739357 -1 15 C-2.74834267 12.377486 -3.51529754 11.00515522 -4 8 C-3.67 7.34 -3.34 6.68 -3 6 C-2.34 6 -1.68 6 -1 6 C-0.67 4.02 -0.34 2.04 0 0 Z " fill="#D48848" transform="translate(430,425)"/>
<path d="M0 0 C0.33 0 0.66 0 1 0 C1 2.97 1 5.94 1 9 C-3.25566547 10.16063604 -6.6835078 9.76173392 -11 9 C-11 8.67 -11 8.34 -11 8 C-9.72125 7.87625 -8.4425 7.7525 -7.125 7.625 C-3.65209064 7.30957601 -3.65209064 7.30957601 -1 5 C-0.35232207 2.42938689 -0.35232207 2.42938689 0 0 Z " fill="#E9D7C2" transform="translate(596,627)"/>
<path d="M0 0 C2.0625 2.0625 2.0625 2.0625 4 5 C3.75 8.8125 3.75 8.8125 3 12 C2.01 11.34 1.02 10.68 0 10 C-0.29296875 7.6171875 -0.29296875 7.6171875 -0.1875 4.875 C-0.16042969 3.96492187 -0.13335938 3.05484375 -0.10546875 2.1171875 C-0.07066406 1.41851563 -0.03585937 0.71984375 0 0 Z " fill="#F1E4D1" transform="translate(594,609)"/>
<path d="M0 0 C1.32 0 2.64 0 4 0 C3.34 4.29 2.68 8.58 2 13 C0.12815629 9.25631258 -0.23999767 8.1599209 -0.125 4.25 C-0.10695313 3.45078125 -0.08890625 2.6515625 -0.0703125 1.828125 C-0.04710937 1.22484375 -0.02390625 0.6215625 0 0 Z " fill="#E0DFD8" transform="translate(515,397)"/>
<path d="M0 0 C0.33 0 0.66 0 1 0 C1.18451025 9.41002278 1.18451025 9.41002278 0 14 C-2.08940868 10.86588698 -2.27364412 10.02549528 -2.25 6.4375 C-2.25515625 5.65246094 -2.2603125 4.86742187 -2.265625 4.05859375 C-2 2 -2 2 0 0 Z " fill="#CBCAC2" transform="translate(502,298)"/>
<path d="M0 0 C0.66 0.99 1.32 1.98 2 3 C2.66 2.67 3.32 2.34 4 2 C4 3.32 4 4.64 4 6 C2 7.75 2 7.75 0 9 C-1.32 8.01 -2.64 7.02 -4 6 C-3.01 5.34 -2.02 4.68 -1 4 C-0.27617533 1.94074861 -0.27617533 1.94074861 0 0 Z " fill="#EDE2D0" transform="translate(452,642)"/>
<path d="M0 0 C1.98 0.66 3.96 1.32 6 2 C6 3.32 6 4.64 6 6 C3.69 6 1.38 6 -1 6 C-1 3 -1 3 0 0 Z " fill="#F6F3E2" transform="translate(483,552)"/>
<path d="M0 0 C0.33 0 0.66 0 1 0 C1.36263859 5.8022175 0.25684543 9.63999211 -2 15 C-2.66 14.34 -3.32 13.68 -4 13 C-3.54545455 7.54545455 -3.54545455 7.54545455 -1 5 C-0.35232207 2.42938689 -0.35232207 2.42938689 0 0 Z " fill="#EDE0CA" transform="translate(400,547)"/>
<path d="M0 0 C0.33 0.66 0.66 1.32 1 2 C2.65 1.67 4.3 1.34 6 1 C6 1.66 6 2.32 6 3 C6.66 3.33 7.32 3.66 8 4 C4.7 4.33 1.4 4.66 -2 5 C-1 1 -1 1 0 0 Z " fill="#D78F51" transform="translate(470,649)"/>
<path d="M0 0 C1.32 0 2.64 0 4 0 C3.44687265 4.02992782 2.8441938 8.02022924 2 12 C-0.60018816 8.09971775 -0.15085514 4.52565431 0 0 Z " fill="#E7DCC4" transform="translate(486,639)"/>
<path d="M0 0 C2.12046792 3.53411321 2.53199289 6.94393835 3 11 C2.01 11 1.02 11 0 11 C-2.21538462 4.6 -2.21538462 4.6 -1.125 1.5625 C-0.75375 1.046875 -0.3825 0.53125 0 0 Z " fill="#EADAC0" transform="translate(581,613)"/>
<path d="M0 0 C2.31 0 4.62 0 7 0 C7.33 1.65 7.66 3.3 8 5 C3.545 4.01 3.545 4.01 -1 3 C-0.67 2.01 -0.34 1.02 0 0 Z " fill="#E0E0DA" transform="translate(533,344)"/>
<path d="M0 0 C5.75 -0.125 5.75 -0.125 8 1 C8 1.99 8 2.98 8 4 C5.69 4 3.38 4 1 4 C0.67 2.68 0.34 1.36 0 0 Z " fill="#F8F7F3" transform="translate(464,344)"/>
<path d="M0 0 C0.66 0.66 1.32 1.32 2 2 C-0.35277269 4.72426311 -2.62496331 5.8141763 -6 7 C-6.66 6.01 -7.32 5.02 -8 4 C-5.36 2.68 -2.72 1.36 0 0 Z " fill="#D68948" transform="translate(529,605)"/>
<path d="M0 0 C0.66 0 1.32 0 2 0 C1.67 5.94 1.34 11.88 1 18 C0.67 18 0.34 18 0 18 C-0.19430855 15.3753399 -0.38073238 12.75053235 -0.5625 10.125 C-0.61857422 9.37863281 -0.67464844 8.63226562 -0.73242188 7.86328125 C-1.11328125 2.2265625 -1.11328125 2.2265625 0 0 Z " fill="#ECD9BC" transform="translate(387,586)"/>
<path d="M0 0 C0.33 0 0.66 0 1 0 C1 1.98 1 3.96 1 6 C1.66 6 2.32 6 3 6 C2.25 12.75 2.25 12.75 0 15 C0 10.05 0 5.1 0 0 Z " fill="#C7C5C0" transform="translate(510,421)"/>
<path d="M0 0 C0.66 0.33 1.32 0.66 2 1 C1.01 5.62 0.02 10.24 -1 15 C-1.33 15 -1.66 15 -2 15 C-2.05429959 13.25034642 -2.09292823 11.50020213 -2.125 9.75 C-2.15980469 8.28820312 -2.15980469 8.28820312 -2.1953125 6.796875 C-1.99862781 3.9803502 -1.44568916 2.39050964 0 0 Z " fill="#D38443" transform="translate(613,537)"/>
<path d="M0 0 C0.99 0 1.98 0 3 0 C3.99 2.31 4.98 4.62 6 7 C4.68 7 3.36 7 2 7 C1.87625 6.195625 1.7525 5.39125 1.625 4.5625 C1.315625 3.2940625 1.315625 3.2940625 1 2 C0.34 1.67 -0.32 1.34 -1 1 C-0.67 0.67 -0.34 0.34 0 0 Z " fill="#D18748" transform="translate(563,375)"/>
<path d="M0 0 C1.96446905 1.6344795 2.92317791 2.46429394 3.29296875 5.04296875 C3.1953125 7.02864583 3.09765625 9.01432292 3 11 C2.34 10.67 1.68 10.34 1 10 C0.5859375 7.71484375 0.5859375 7.71484375 0.375 4.9375 C0.30023437 4.01839844 0.22546875 3.09929688 0.1484375 2.15234375 C0.09945312 1.44207031 0.05046875 0.73179687 0 0 Z " fill="#D38E55" transform="translate(555,571)"/>
<path d="M0 0 C2.50037734 2.17424117 3.43628586 3.73045798 4 7 C2.02 7.99 2.02 7.99 0 9 C0.04125 8.236875 0.0825 7.47375 0.125 6.6875 C0.22080824 3.77281584 0.22080824 3.77281584 -2 1 C-1.34 0.67 -0.68 0.34 0 0 Z " fill="#D78947" transform="translate(593,541)"/>
<path d="M0 0 C0.66 0 1.32 0 2 0 C1.67 1.32 1.34 2.64 1 4 C0.34 4 -0.32 4 -1 4 C-1.33 5.32 -1.66 6.64 -2 8 C-4 5 -4 5 -5 2 C-4.360625 1.855625 -3.72125 1.71125 -3.0625 1.5625 C-1.02454854 1.18992819 -1.02454854 1.18992819 0 0 Z " fill="#D38748" transform="translate(446,423)"/>
<path d="M0 0 C2.475 0.99 2.475 0.99 5 2 C1.68629 4.20914 0.6553979 4.22481553 -3.1875 4.125 C-4.08855469 4.10695313 -4.98960937 4.08890625 -5.91796875 4.0703125 C-6.60503906 4.04710937 -7.29210937 4.02390625 -8 4 C-8 3.67 -8 3.34 -8 3 C-6.865625 2.690625 -5.73125 2.38125 -4.5625 2.0625 C-1.21224901 1.37075469 -1.21224901 1.37075469 0 0 Z " fill="#D78E4E" transform="translate(548,650)"/>
<path d="M0 0 C2 1 2 1 4 4 C3.67 4.66 3.34 5.32 3 6 C0.03 5.67 -2.94 5.34 -6 5 C-6 4.67 -6 4.34 -6 4 C-4.02 4 -2.04 4 0 4 C0 2.68 0 1.36 0 0 Z " fill="#ECE2CB" transform="translate(489,554)"/>
<path d="M0 0 C0.99 0.66 1.98 1.32 3 2 C2.34 3.65 1.68 5.3 1 7 C-0.32 7 -1.64 7 -3 7 C-1.125 2.25 -1.125 2.25 0 0 Z " fill="#CF8747" transform="translate(444,451)"/>
<path d="M0 0 C0.93065133 2.60582371 1.14917407 3.64198224 0.0625 6.25 C-0.4634375 7.11625 -0.4634375 7.11625 -1 8 C-0.01 8.33 0.98 8.66 2 9 C1.67 9.66 1.34 10.32 1 11 C0.34 11 -0.32 11 -1 11 C-2.1875 8.875 -2.1875 8.875 -3 6 C-1.625 2.6875 -1.625 2.6875 0 0 Z " fill="#C87D40" transform="translate(534,412)"/>
<path d="M0 0 C0.66 0 1.32 0 2 0 C1.34 3.3 0.68 6.6 0 10 C-0.66 9.34 -1.32 8.68 -2 8 C-1.42307692 1.42307692 -1.42307692 1.42307692 0 0 Z " fill="#F1EADB" transform="translate(421,380)"/>
<path d="M0 0 C1.75 0.25 1.75 0.25 4 1 C6.33094534 1.3496418 8.66404762 1.68554487 11 2 C11 2.33 11 2.66 11 3 C6.38 3 1.76 3 -3 3 C-2.01 2.01 -1.02 1.02 0 0 Z " fill="#CFD0CA" transform="translate(460,362)"/>
<path d="M0 0 C0.33 1.32 0.66 2.64 1 4 C0.34 4 -0.32 4 -1 4 C-1.33 5.32 -1.66 6.64 -2 8 C-2.66 8 -3.32 8 -4 8 C-3.50168276 4.31245243 -2.89932357 2.39509338 0 0 Z " fill="#ECE1CA" transform="translate(396,641)"/>
<path d="M0 0 C1.66666667 1.66666667 3.33333333 3.33333333 5 5 C3.35 5.33 1.7 5.66 0 6 C-0.66 4.68 -1.32 3.36 -2 2 C-1.34 1.34 -0.68 0.68 0 0 Z " fill="#D48B50" transform="translate(623,613)"/>
<path d="M0 0 C0.66 0 1.32 0 2 0 C1.67 3.63 1.34 7.26 1 11 C-1.30441554 7.54337669 -1.25860135 6.05142119 -1 2 C-0.67 1.34 -0.34 0.68 0 0 Z " fill="#D48B4A" transform="translate(500,607)"/>
<path d="M0 0 C-3.53834904 2.12300942 -6.90823045 2.69690596 -11 3 C-11.66 2.34 -12.32 1.68 -13 1 C-8.59085217 -0.10228696 -4.51617599 -0.07654536 0 0 Z " fill="#CFCFC9" transform="translate(479,360)"/>
<path d="M0 0 C1.0326802 2.78823655 1.04509293 3.8677274 0.0625 6.75 C-0.288125 7.4925 -0.63875 8.235 -1 9 C-2.38111722 6.7252187 -3.05694702 5.49828639 -2.75 2.8125 C-2 1 -2 1 0 0 Z " fill="#D27831" transform="translate(399,563)"/>
<path d="M0 0 C0.99 0 1.98 0 3 0 C2.34 2.97 1.68 5.94 1 9 C0.34 8.34 -0.32 7.68 -1 7 C-0.625 3.375 -0.625 3.375 0 0 Z " fill="#F5F4F0" transform="translate(481,328)"/>
<path d="M0 0 C0 0.99 0 1.98 0 3 C-2.4375 2.625 -2.4375 2.625 -5 2 C-5.33 1.34 -5.66 0.68 -6 0 C-3.50907189 -1.24546405 -2.58919267 -0.7767578 0 0 Z " fill="#CE8446" transform="translate(575,560)"/>
<path d="M0 0 C0.66 0.66 1.32 1.32 2 2 C1.96712417 4.72869407 1.43602229 7.2966618 1 10 C0.34 9.34 -0.32 8.68 -1 8 C-0.96712417 5.27130593 -0.43602229 2.7033382 0 0 Z " fill="#282827" transform="translate(515,416)"/>
<path d="M0 0 C0.99 0 1.98 0 3 0 C3.33 0.99 3.66 1.98 4 3 C1.69 3.66 -0.62 4.32 -3 5 C-1.125 1.125 -1.125 1.125 0 0 Z " fill="#CC8140" transform="translate(550,386)"/>
<path d="M0 0 C0.66 0.33 1.32 0.66 2 1 C1.34 2.98 0.68 4.96 0 7 C-0.99 6.67 -1.98 6.34 -3 6 C-1.125 1.125 -1.125 1.125 0 0 Z " fill="#D28E51" transform="translate(445,375)"/>
<path d="M0 0 C0.66 0.33 1.32 0.66 2 1 C0.515 4.96 0.515 4.96 -1 9 C-2.1875 7.3125 -2.1875 7.3125 -3 5 C-1.625 2.25 -1.625 2.25 0 0 Z " fill="#F0E5D4" transform="translate(425,370)"/>
<path d="M0 0 C0 1.98 0 3.96 0 6 C-0.66 6 -1.32 6 -2 6 C-2.33 6.66 -2.66 7.32 -3 8 C-3 5.69 -3 3.38 -3 1 C-1 0 -1 0 0 0 Z " fill="#FBF5E5" transform="translate(503,567)"/>
<path d="M0 0 C0 0.99 0 1.98 0 3 C-2.5 5.1875 -2.5 5.1875 -5 7 C-5.66 6.67 -6.32 6.34 -7 6 C-4.69 4.02 -2.38 2.04 0 0 Z " fill="#D38646" transform="translate(431,521)"/>
<path d="M0 0 C0.66 0 1.32 0 2 0 C1.34 2.97 0.68 5.94 0 9 C-0.33 8.34 -0.66 7.68 -1 7 C-1.66 7 -2.32 7 -3 7 C-2.690625 6.401875 -2.38125 5.80375 -2.0625 5.1875 C-0.89790296 2.91043228 -0.89790296 2.91043228 0 0 Z " fill="#EDE6D7" transform="translate(454,481)"/>
</svg>
